<svg width="17" height="17" viewBox="0 0 17 17" fill="none" xmlns="http://www.w3.org/2000/svg">
<path d="M8.71476 2.1438C5.03476 2.1438 2.0481 5.13047 2.0481 8.81046C2.0481 12.4905 5.03476 15.4771 8.71476 15.4771C12.3948 15.4771 15.3814 12.4905 15.3814 8.81046C15.3814 5.13047 12.3948 2.1438 8.71476 2.1438ZM3.38143 8.81046C3.38143 5.8638 5.7681 3.47713 8.71476 3.47713C9.9481 3.47713 11.0814 3.89713 11.9814 4.6038L4.5081 12.0771C3.77585 11.1459 3.37892 9.99507 3.38143 8.81046ZM8.71476 14.1438C7.48143 14.1438 6.3481 13.7238 5.4481 13.0171L12.9214 5.5438C13.6537 6.47499 14.0506 7.62586 14.0481 8.81046C14.0481 11.7571 11.6614 14.1438 8.71476 14.1438Z" fill="black"/>
</svg>
