<svg width="17" height="18" viewBox="0 0 17 18" fill="none" xmlns="http://www.w3.org/2000/svg">
<path d="M11.3914 4.65522V4.10118C11.3914 3.32545 11.3914 2.93758 11.2404 2.64129C11.1076 2.38067 10.8957 2.16877 10.6351 2.03598C10.3388 1.88501 9.95094 1.88501 9.17521 1.88501H8.06712C7.29139 1.88501 6.90352 1.88501 6.60723 2.03598C6.34661 2.16877 6.13471 2.38067 6.00192 2.64129C5.85095 2.93758 5.85095 3.32545 5.85095 4.10118V4.65522M7.23606 8.46427V11.927M10.0063 8.46427V11.927M2.38818 4.65522H14.8541M13.469 4.65522V12.4118C13.469 13.5754 13.469 14.1572 13.2426 14.6017C13.0434 14.9926 12.7256 15.3104 12.3346 15.5096C11.8902 15.7361 11.3084 15.7361 10.1448 15.7361H7.09755C5.93395 15.7361 5.35215 15.7361 4.90771 15.5096C4.51678 15.3104 4.19893 14.9926 3.99974 14.6017C3.77329 14.1572 3.77329 13.5754 3.77329 12.4118V4.65522" stroke="#292D32" stroke-width="1.03883" stroke-linecap="round" stroke-linejoin="round"/>
</svg>
