<svg width="25" height="24" viewBox="0 0 25 24" fill="none" xmlns="http://www.w3.org/2000/svg">
<path d="M8.56797 3H5.76797C5.34362 3 4.93666 3.16857 4.6366 3.46863C4.33654 3.76869 4.16797 4.17565 4.16797 4.6V9.4C4.16797 9.61011 4.20935 9.81817 4.28976 10.0123C4.37017 10.2064 4.48802 10.3828 4.6366 10.5314C4.78517 10.6799 4.96155 10.7978 5.15568 10.8782C5.3498 10.9586 5.55785 11 5.76797 11H8.56797C8.77808 11 8.98614 10.9586 9.18026 10.8782C9.37438 10.7978 9.55077 10.6799 9.69934 10.5314C9.84791 10.3828 9.96577 10.2064 10.0462 10.0123C10.1266 9.81817 10.168 9.61011 10.168 9.4V4.6C10.168 4.17565 9.9994 3.76869 9.69934 3.46863C9.39928 3.16857 8.99231 3 8.56797 3ZM8.56797 15H5.76797C5.34362 15 4.93666 15.1686 4.6366 15.4686C4.33654 15.7687 4.16797 16.1757 4.16797 16.6V19.4C4.16797 19.8243 4.33654 20.2313 4.6366 20.5314C4.93666 20.8314 5.34362 21 5.76797 21H8.56797C8.99231 21 9.39928 20.8314 9.69934 20.5314C9.9994 20.2313 10.168 19.8243 10.168 19.4V16.6C10.168 16.1757 9.9994 15.7687 9.69934 15.4686C9.39928 15.1686 8.99231 15 8.56797 15ZM18.568 3H15.768C15.3436 3 14.9367 3.16857 14.6366 3.46863C14.3365 3.76869 14.168 4.17565 14.168 4.6V7.4C14.168 7.82435 14.3365 8.23131 14.6366 8.53137C14.9367 8.83143 15.3436 9 15.768 9H18.568C18.9923 9 19.3993 8.83143 19.6993 8.53137C19.9994 8.23131 20.168 7.82435 20.168 7.4V4.6C20.168 4.17565 19.9994 3.76869 19.6993 3.46863C19.3993 3.16857 18.9923 3 18.568 3ZM18.568 13H15.768C15.3436 13 14.9367 13.1686 14.6366 13.4686C14.3365 13.7687 14.168 14.1757 14.168 14.6V19.4C14.168 19.8243 14.3365 20.2313 14.6366 20.5314C14.9367 20.8314 15.3436 21 15.768 21H18.568C18.9923 21 19.3993 20.8314 19.6993 20.5314C19.9994 20.2313 20.168 19.8243 20.168 19.4V14.6C20.168 14.1757 19.9994 13.7687 19.6993 13.4686C19.3993 13.1686 18.9923 13 18.568 13Z" stroke="#292D32" stroke-width="1.5" stroke-miterlimit="10" stroke-linejoin="round"/>
</svg>
