<svg width="25" height="24" viewBox="0 0 25 24" fill="none" xmlns="http://www.w3.org/2000/svg">
<path d="M19.168 7C19.168 5.9 18.268 5 17.168 5H14.168V7H17.168V9.65L13.688 14H10.168V9H6.16797C3.95797 9 2.16797 10.79 2.16797 13V16H4.16797C4.16797 17.66 5.50797 19 7.16797 19C8.82797 19 10.168 17.66 10.168 16H14.648L19.168 10.35V7ZM4.16797 14V13C4.16797 11.9 5.06797 11 6.16797 11H8.16797V14H4.16797ZM7.16797 17C6.61797 17 6.16797 16.55 6.16797 16H8.16797C8.16797 16.55 7.71797 17 7.16797 17Z" fill="#292D32"/>
<path d="M5.16797 6H10.168V8H5.16797V6ZM19.168 13C17.508 13 16.168 14.34 16.168 16C16.168 17.66 17.508 19 19.168 19C20.828 19 22.168 17.66 22.168 16C22.168 14.34 20.828 13 19.168 13ZM19.168 17C18.618 17 18.168 16.55 18.168 16C18.168 15.45 18.618 15 19.168 15C19.718 15 20.168 15.45 20.168 16C20.168 16.55 19.718 17 19.168 17Z" fill="#292D32"/>
</svg>
