<svg width="25" height="24" viewBox="0 0 25 24" fill="none" xmlns="http://www.w3.org/2000/svg">
<path d="M12.168 21L20.299 16.792C20.615 16.628 20.773 16.547 20.888 16.426C20.9898 16.3198 21.067 16.1924 21.114 16.053C21.168 15.894 21.168 15.717 21.168 15.361V7.533M12.168 21L4.03697 16.792C3.72097 16.628 3.56297 16.547 3.44797 16.426C3.34611 16.3198 3.26894 16.1924 3.22197 16.053C3.16797 15.894 3.16797 15.716 3.16797 15.359V7.533M12.168 21V11.937M21.168 7.533L12.168 11.937M21.168 7.533L16.668 5.203M3.16797 7.533L11.437 3.254C11.705 3.116 11.838 3.046 11.979 3.019C12.1038 2.99497 12.2321 2.99497 12.357 3.019C12.497 3.046 12.631 3.116 12.898 3.254L16.668 5.203M3.16797 7.533L7.66797 9.736M12.168 11.937L7.66797 9.735M16.668 5.203L7.66797 9.735M7.66797 9.735V11.937" stroke="#292D32" stroke-width="1.5" stroke-linecap="round" stroke-linejoin="round"/>
</svg>
