<svg width="25" height="24" viewBox="0 0 25 24" fill="none" xmlns="http://www.w3.org/2000/svg">
<path d="M12.1679 2V22M21.1679 12H3.16794M12.1659 2C9.15794 2 7.20794 4.019 4.90194 4.755C3.96394 5.055 3.49494 5.204 3.30494 5.415C3.11494 5.625 3.05994 5.934 2.94894 6.55C1.75894 13.146 4.35894 19.244 10.5589 21.618C11.2239 21.873 11.5569 22 12.1689 22C12.7809 22 13.1149 21.872 13.7809 21.617C19.9799 19.244 22.5769 13.146 21.3869 6.55C21.2759 5.934 21.2199 5.625 21.0299 5.414C20.8399 5.203 20.3719 5.054 19.4339 4.755C17.1269 4.019 15.1739 2 12.1659 2Z" stroke="white" stroke-width="1.5" stroke-linecap="round" stroke-linejoin="round"/>
</svg>
