<svg width="25" height="24" viewBox="0 0 25 24" fill="none" xmlns="http://www.w3.org/2000/svg">
<path d="M6.16797 16V13M12.168 6V3M18.168 16V13M10.168 15V19C10.168 19.5304 9.95725 20.0391 9.58218 20.4142C9.20711 20.7893 8.6984 21 8.16797 21H4.16797C3.63754 21 3.12883 20.7893 2.75376 20.4142C2.37868 20.0391 2.16797 19.5304 2.16797 19V15C2.16797 14.4696 2.37868 13.9609 2.75376 13.5858C3.12883 13.2107 3.63754 13 4.16797 13H8.16797C8.6984 13 9.20711 13.2107 9.58218 13.5858C9.95725 13.9609 10.168 14.4696 10.168 15ZM16.168 5V9C16.168 9.53043 15.9573 10.0391 15.5822 10.4142C15.2071 10.7893 14.6984 11 14.168 11H10.168C9.63754 11 9.12883 10.7893 8.75376 10.4142C8.37868 10.0391 8.16797 9.53043 8.16797 9V5C8.16797 4.46957 8.37868 3.96086 8.75376 3.58579C9.12883 3.21071 9.63754 3 10.168 3H14.168C14.6984 3 15.2071 3.21071 15.5822 3.58579C15.9573 3.96086 16.168 4.46957 16.168 5ZM22.168 15V19C22.168 19.5304 21.9573 20.0391 21.5822 20.4142C21.2071 20.7893 20.6984 21 20.168 21H16.168C15.6375 21 15.1288 20.7893 14.7538 20.4142C14.3787 20.0391 14.168 19.5304 14.168 19V15C14.168 14.4696 14.3787 13.9609 14.7538 13.5858C15.1288 13.2107 15.6375 13 16.168 13H20.168C20.6984 13 21.2071 13.2107 21.5822 13.5858C21.9573 13.9609 22.168 14.4696 22.168 15Z" stroke="white" stroke-width="1.5" stroke-linecap="round" stroke-linejoin="round"/>
</svg>
