<svg width="25" height="24" viewBox="0 0 25 24" fill="none" xmlns="http://www.w3.org/2000/svg">
<path d="M18.6479 12C17.809 11.2967 16.7424 10.9234 15.6479 10.95H8.61294C8.29218 10.9581 7.97309 10.9014 7.67477 10.7832C7.37644 10.6651 7.10501 10.488 6.87673 10.2626C6.64846 10.0371 6.46802 9.76786 6.34623 9.47101C6.22444 9.17417 6.1638 8.8558 6.16794 8.53497C6.16012 8.41009 6.16012 8.28484 6.16794 8.15997C6.26252 7.58667 6.56314 7.06763 7.01333 6.70029C7.46352 6.33296 8.03233 6.1426 8.61294 6.16497H15.5429C16.1082 6.16447 16.6553 6.36478 17.0867 6.73017C17.518 7.09556 17.8055 7.60228 17.8979 8.15997H20.1479C20.0538 7.00337 19.5278 5.92457 18.6745 5.13805C17.8213 4.35154 16.7034 3.9149 15.5429 3.91497H13.1729V0.464966H11.2979V3.91497H8.61294C7.45251 3.9149 6.33456 4.35154 5.48134 5.13805C4.62812 5.92457 4.10213 7.00337 4.00794 8.15997C4.00012 8.28484 4.00012 8.41009 4.00794 8.53497C4.00794 9.1397 4.12705 9.73852 4.35848 10.2972C4.5899 10.8559 4.9291 11.3636 5.35671 11.7912C6.22032 12.6548 7.39162 13.14 8.61294 13.14H15.7229C16.0412 13.132 16.3578 13.1877 16.6541 13.304C16.9504 13.4203 17.2205 13.5947 17.4483 13.8169C17.6762 14.0392 17.8572 14.3048 17.9808 14.5982C18.1044 14.8915 18.168 15.2067 18.1679 15.525C18.1824 15.6947 18.1824 15.8653 18.1679 16.035C18.0488 16.5627 17.7538 17.0343 17.3313 17.3723C16.9089 17.7103 16.384 17.8946 15.8429 17.895H8.79294C8.25189 17.8946 7.72703 17.7103 7.30454 17.3723C6.88205 17.0343 6.58704 16.5627 6.46794 16.035H4.20294C4.33185 17.162 4.87089 18.2022 5.71736 18.9574C6.56384 19.7126 7.65856 20.1299 8.79294 20.13H11.2979V23.535H13.1729V20.13H15.7229C16.8573 20.1299 17.952 19.7126 18.7985 18.9574C19.645 18.2022 20.184 17.162 20.3129 16.035V15.525C20.3111 14.8512 20.161 14.1861 19.8733 13.5769C19.5855 12.9677 19.1672 12.4293 18.6479 12Z" fill="white"/>
</svg>
