<svg width="25" height="24" viewBox="0 0 25 24" fill="none" xmlns="http://www.w3.org/2000/svg">
<path fill-rule="evenodd" clip-rule="evenodd" d="M7.60297 1.25H16.733C17.303 1.25 17.787 1.25 18.186 1.291C18.612 1.335 19.006 1.431 19.378 1.661C19.749 1.891 20.011 2.2 20.241 2.561C20.456 2.901 20.673 3.333 20.928 3.843L20.944 3.876C20.954 3.896 20.963 3.916 20.971 3.936L22.374 7.483C22.542 7.906 22.727 8.433 22.781 8.971C22.836 9.523 22.761 10.154 22.328 10.701C21.9694 11.1568 21.4759 11.4876 20.918 11.646V21.25H22.168C22.3669 21.25 22.5576 21.329 22.6983 21.4697C22.839 21.6103 22.918 21.8011 22.918 22C22.918 22.1989 22.839 22.3897 22.6983 22.5303C22.5576 22.671 22.3669 22.75 22.168 22.75H2.16797C1.96906 22.75 1.77829 22.671 1.63764 22.5303C1.49699 22.3897 1.41797 22.1989 1.41797 22C1.41797 21.8011 1.49699 21.6103 1.63764 21.4697C1.77829 21.329 1.96906 21.25 2.16797 21.25H3.41797V11.646C2.86021 11.4878 2.36671 11.1574 2.00797 10.702C1.57597 10.154 1.49997 9.522 1.55497 8.972C1.60897 8.432 1.79497 7.906 1.96097 7.483L3.36497 3.935L3.39197 3.875L3.40797 3.843C3.66297 3.333 3.87897 2.9 4.09497 2.561C4.32497 2.2 4.58697 1.891 4.95797 1.661C5.32997 1.431 5.72397 1.335 6.14897 1.291C6.54897 1.25 7.03297 1.25 7.60297 1.25ZM18.168 10.888C18.5086 11.2488 18.9405 11.5107 19.418 11.646V21.25H15.418V18.468C15.418 18.028 15.418 17.648 15.39 17.338C15.36 17.008 15.294 16.682 15.117 16.375C14.9194 16.0327 14.6352 15.7485 14.293 15.551C13.986 15.374 13.66 15.308 13.331 15.278C13.019 15.25 12.64 15.25 12.201 15.25H12.136C11.696 15.25 11.316 15.25 11.006 15.278C10.676 15.308 10.35 15.374 10.043 15.551C9.70071 15.7485 9.41651 16.0327 9.21897 16.375C9.04197 16.682 8.97597 17.008 8.94597 17.337C8.91797 17.649 8.91797 18.028 8.91797 18.467V21.25H4.91797V11.647C5.39561 11.5112 5.82756 11.2485 6.16797 10.887C6.42462 11.1599 6.73453 11.3773 7.07853 11.5258C7.42252 11.6742 7.79331 11.7505 8.16797 11.75C8.95597 11.75 9.66697 11.419 10.168 10.887C10.4246 11.1599 10.7345 11.3773 11.0785 11.5258C11.4225 11.6742 11.7933 11.7505 12.168 11.75C12.956 11.75 13.667 11.419 14.168 10.887C14.4246 11.1599 14.7345 11.3773 15.0785 11.5258C15.4225 11.6742 15.7933 11.7505 16.168 11.75C16.956 11.75 17.667 11.42 18.168 10.888ZM10.418 21.25H13.918V18.5C13.918 18.019 13.918 17.708 13.896 17.473C13.876 17.248 13.841 17.166 13.817 17.125C13.7512 17.0112 13.6567 16.9168 13.543 16.851C13.503 16.827 13.42 16.793 13.195 16.772C12.8531 16.7511 12.5105 16.7438 12.168 16.75C11.687 16.75 11.376 16.75 11.141 16.772C10.916 16.792 10.834 16.827 10.793 16.851C10.6792 16.9168 10.5847 17.0112 10.519 17.125C10.495 17.165 10.46 17.248 10.44 17.473C10.419 17.708 10.418 18.019 10.418 18.5V21.25ZM6.91797 9C6.91797 9.33152 7.04966 9.64946 7.28409 9.88388C7.51851 10.1183 7.83645 10.25 8.16797 10.25C8.49949 10.25 8.81743 10.1183 9.05185 9.88388C9.28627 9.64946 9.41797 9.33152 9.41797 9C9.41797 8.80109 9.49699 8.61032 9.63764 8.46967C9.77829 8.32902 9.96906 8.25 10.168 8.25C10.3669 8.25 10.5576 8.32902 10.6983 8.46967C10.839 8.61032 10.918 8.80109 10.918 9C10.918 9.33152 11.0497 9.64946 11.2841 9.88388C11.5185 10.1183 11.8364 10.25 12.168 10.25C12.4995 10.25 12.8174 10.1183 13.0519 9.88388C13.2863 9.64946 13.418 9.33152 13.418 9C13.418 8.80109 13.497 8.61032 13.6376 8.46967C13.7783 8.32902 13.9691 8.25 14.168 8.25C14.3669 8.25 14.5576 8.32902 14.6983 8.46967C14.839 8.61032 14.918 8.80109 14.918 9C14.918 9.33152 15.0497 9.64946 15.2841 9.88388C15.5185 10.1183 15.8364 10.25 16.168 10.25C16.4995 10.25 16.8174 10.1183 17.0519 9.88388C17.2863 9.64946 17.418 9.33152 17.418 9C17.418 8.80109 17.497 8.61032 17.6376 8.46967C17.7783 8.32902 17.9691 8.25 18.168 8.25C18.3669 8.25 18.5576 8.32902 18.6983 8.46967C18.839 8.61032 18.918 8.80109 18.918 9C18.9181 9.2598 18.9991 9.51311 19.1498 9.72472C19.3005 9.93633 19.5134 10.0957 19.7589 10.1808C20.0044 10.2658 20.2703 10.2722 20.5196 10.1991C20.7689 10.126 20.9892 9.9771 21.15 9.773C21.264 9.629 21.32 9.431 21.288 9.121C21.256 8.799 21.137 8.433 20.98 8.035L19.588 4.517C19.32 3.982 19.141 3.627 18.975 3.367C18.815 3.115 18.701 3.006 18.589 2.937C18.478 2.867 18.329 2.814 18.032 2.783C17.718 2.751 17.312 2.75 16.696 2.75H7.63997C7.02297 2.75 6.61697 2.75 6.30397 2.783C6.00697 2.814 5.85797 2.868 5.74697 2.937C5.63597 3.006 5.52097 3.115 5.36097 3.367C5.19397 3.627 5.01597 3.982 4.74797 4.517L3.35597 8.035C3.19897 8.433 3.07997 8.799 3.04797 9.121C3.01697 9.431 3.07197 9.629 3.18597 9.773C3.34671 9.9771 3.56706 10.126 3.81636 10.1991C4.06567 10.2722 4.33155 10.2658 4.57704 10.1808C4.82253 10.0957 5.03543 9.93633 5.18614 9.72472C5.33685 9.51311 5.41788 9.2598 5.41797 9C5.41797 8.80109 5.49699 8.61032 5.63764 8.46967C5.77829 8.32902 5.96906 8.25 6.16797 8.25C6.36688 8.25 6.55765 8.32902 6.6983 8.46967C6.83895 8.61032 6.91797 8.80109 6.91797 9Z" fill="#292D32"/>
</svg>
