<svg width="154" height="37" viewBox="0 0 154 37" fill="none" xmlns="http://www.w3.org/2000/svg">
<path d="M72.139 15.6989H69.193C69.0797 15.0694 68.8688 14.5155 68.5603 14.0371C68.2519 13.5587 67.8742 13.1527 67.4273 12.819C66.9803 12.4854 66.4799 12.2336 65.926 12.0637C65.3783 11.8937 64.796 11.8087 64.1791 11.8087C63.0649 11.8087 62.0672 12.0888 61.1859 12.6491C60.3109 13.2093 59.6185 14.0308 59.1086 15.1135C58.605 16.1962 58.3532 17.5181 58.3532 19.0793C58.3532 20.653 58.605 21.9812 59.1086 23.0639C59.6185 24.1466 60.3141 24.965 61.1954 25.5189C62.0767 26.0728 63.0681 26.3498 64.1697 26.3498C64.7803 26.3498 65.3594 26.268 65.9071 26.1043C66.461 25.9344 66.9615 25.6857 67.4084 25.3584C67.8553 25.0311 68.233 24.6313 68.5415 24.1592C68.8562 23.6808 69.0734 23.1332 69.193 22.5163L72.139 22.5257C71.9816 23.4762 71.6763 24.3512 71.2231 25.1507C70.7761 25.9438 70.2002 26.6299 69.4951 27.2091C68.7964 27.7819 67.997 28.2257 67.0968 28.5404C66.1966 28.8552 65.2146 29.0125 64.1508 29.0125C62.4764 29.0125 60.9845 28.616 59.6752 27.8228C58.3658 27.0234 57.3335 25.8809 56.5781 24.3953C55.829 22.9097 55.4545 21.1377 55.4545 19.0793C55.4545 17.0146 55.8322 15.2426 56.5875 13.7633C57.3429 12.2777 58.3753 11.1383 59.6846 10.3452C60.9939 9.54571 62.4827 9.14599 64.1508 9.14599C65.1769 9.14599 66.1337 9.29392 67.0213 9.58978C67.9151 9.87934 68.7177 10.3074 69.429 10.8739C70.1404 11.4342 70.7289 12.1203 71.1947 12.9323C71.6606 13.7381 71.9753 14.6603 72.139 15.6989Z" fill="#292D32"/>
<path d="M81.5128 29.0409C80.1531 29.0409 78.9665 28.7293 77.9531 28.1061C76.9396 27.4829 76.1527 26.6111 75.5925 25.4906C75.0322 24.3701 74.7521 23.0608 74.7521 21.5626C74.7521 20.0581 75.0322 18.7425 75.5925 17.6157C76.1527 16.4889 76.9396 15.614 77.9531 14.9908C78.9665 14.3676 80.1531 14.056 81.5128 14.056C82.8725 14.056 84.0591 14.3676 85.0725 14.9908C86.086 15.614 86.8729 16.4889 87.4331 17.6157C87.9933 18.7425 88.2735 20.0581 88.2735 21.5626C88.2735 23.0608 87.9933 24.3701 87.4331 25.4906C86.8729 26.6111 86.086 27.4829 85.0725 28.1061C84.0591 28.7293 82.8725 29.0409 81.5128 29.0409ZM81.5222 26.6709C82.4035 26.6709 83.1337 26.438 83.7128 25.9721C84.292 25.5063 84.72 24.8863 84.997 24.112C85.2803 23.3377 85.4219 22.4848 85.4219 21.5531C85.4219 20.6278 85.2803 19.778 84.997 19.0037C84.72 18.2232 84.292 17.5968 83.7128 17.1247C83.1337 16.6526 82.4035 16.4165 81.5222 16.4165C80.6347 16.4165 79.8982 16.6526 79.3127 17.1247C78.7336 17.5968 78.3024 18.2232 78.0191 19.0037C77.7422 19.778 77.6037 20.6278 77.6037 21.5531C77.6037 22.4848 77.7422 23.3377 78.0191 24.112C78.3024 24.8863 78.7336 25.5063 79.3127 25.9721C79.8982 26.438 80.6347 26.6709 81.5222 26.6709Z" fill="#292D32"/>
<path d="M94.2481 9.41038V28.7482H91.4248V9.41038H94.2481Z" fill="#292D32"/>
<path d="M98.0462 28.7482V14.2448H100.869V28.7482H98.0462ZM99.472 12.007C98.981 12.007 98.5592 11.8433 98.2067 11.516C97.8605 11.1824 97.6874 10.7858 97.6874 10.3263C97.6874 9.86046 97.8605 9.46388 98.2067 9.13655C98.5592 8.80292 98.981 8.63611 99.472 8.63611C99.963 8.63611 100.382 8.80292 100.728 9.13655C101.08 9.46388 101.257 9.86046 101.257 10.3263C101.257 10.7858 101.08 11.1824 100.728 11.516C100.382 11.8433 99.963 12.007 99.472 12.007Z" fill="#292D32"/>
<path d="M117.981 15.5195C117.799 14.9467 117.553 14.4337 117.245 13.9804C116.943 13.5209 116.581 13.1306 116.159 12.8096C115.737 12.4823 115.256 12.2336 114.714 12.0637C114.179 11.8937 113.591 11.8087 112.948 11.8087C111.859 11.8087 110.877 12.0888 110.002 12.6491C109.128 13.2093 108.435 14.0308 107.925 15.1135C107.422 16.1899 107.17 17.5087 107.17 19.0698C107.17 20.6372 107.425 21.9623 107.935 23.045C108.445 24.1277 109.143 24.9492 110.031 25.5095C110.918 26.0697 111.929 26.3498 113.062 26.3498C114.113 26.3498 115.029 26.1358 115.809 25.7077C116.596 25.2797 117.204 24.6754 117.632 23.8948C118.066 23.108 118.283 22.1826 118.283 21.1188L119.039 21.2604H113.506V18.8527H121.107V21.0527C121.107 22.6768 120.76 24.0868 120.068 25.2828C119.382 26.4726 118.431 27.3916 117.216 28.04C116.008 28.6884 114.623 29.0125 113.062 29.0125C111.312 29.0125 109.776 28.6097 108.454 27.8039C107.138 26.9982 106.112 25.8557 105.376 24.3764C104.639 22.8908 104.271 21.1282 104.271 19.0887C104.271 17.5465 104.485 16.1616 104.913 14.9341C105.341 13.7066 105.942 12.6648 106.717 11.8087C107.497 10.9463 108.413 10.2885 109.464 9.83528C110.522 9.37575 111.677 9.14599 112.93 9.14599C113.975 9.14599 114.947 9.30022 115.847 9.60866C116.754 9.91711 117.559 10.3546 118.264 10.9211C118.976 11.4877 119.564 12.1612 120.03 12.9418C120.496 13.7161 120.811 14.5753 120.974 15.5195H117.981Z" fill="#FF5A01"/>
<path d="M130.693 29.0409C129.333 29.0409 128.147 28.7293 127.133 28.1061C126.12 27.4829 125.333 26.6111 124.773 25.4906C124.212 24.3701 123.932 23.0608 123.932 21.5626C123.932 20.0581 124.212 18.7425 124.773 17.6157C125.333 16.4889 126.12 15.614 127.133 14.9908C128.147 14.3676 129.333 14.056 130.693 14.056C132.053 14.056 133.239 14.3676 134.253 14.9908C135.266 15.614 136.053 16.4889 136.613 17.6157C137.173 18.7425 137.454 20.0581 137.454 21.5626C137.454 23.0608 137.173 24.3701 136.613 25.4906C136.053 26.6111 135.266 27.4829 134.253 28.1061C133.239 28.7293 132.053 29.0409 130.693 29.0409ZM130.702 26.6709C131.584 26.6709 132.314 26.438 132.893 25.9721C133.472 25.5063 133.9 24.8863 134.177 24.112C134.46 23.3377 134.602 22.4848 134.602 21.5531C134.602 20.6278 134.46 19.778 134.177 19.0037C133.9 18.2232 133.472 17.5968 132.893 17.1247C132.314 16.6526 131.584 16.4165 130.702 16.4165C129.815 16.4165 129.078 16.6526 128.493 17.1247C127.914 17.5968 127.483 18.2232 127.199 19.0037C126.922 19.778 126.784 20.6278 126.784 21.5531C126.784 22.4848 126.922 23.3377 127.199 24.112C127.483 24.8863 127.914 25.5063 128.493 25.9721C129.078 26.438 129.815 26.6709 130.702 26.6709Z" fill="#FF5A01"/>
<path d="M146.714 29.0409C145.354 29.0409 144.168 28.7293 143.154 28.1061C142.141 27.4829 141.354 26.6111 140.794 25.4906C140.234 24.3701 139.953 23.0608 139.953 21.5626C139.953 20.0581 140.234 18.7425 140.794 17.6157C141.354 16.4889 142.141 15.614 143.154 14.9908C144.168 14.3676 145.354 14.056 146.714 14.056C148.074 14.056 149.26 14.3676 150.274 14.9908C151.287 15.614 152.074 16.4889 152.634 17.6157C153.195 18.7425 153.475 20.0581 153.475 21.5626C153.475 23.0608 153.195 24.3701 152.634 25.4906C152.074 26.6111 151.287 27.4829 150.274 28.1061C149.26 28.7293 148.074 29.0409 146.714 29.0409ZM146.724 26.6709C147.605 26.6709 148.335 26.438 148.914 25.9721C149.493 25.5063 149.921 24.8863 150.198 24.112C150.482 23.3377 150.623 22.4848 150.623 21.5531C150.623 20.6278 150.482 19.778 150.198 19.0037C149.921 18.2232 149.493 17.5968 148.914 17.1247C148.335 16.6526 147.605 16.4165 146.724 16.4165C145.836 16.4165 145.099 16.6526 144.514 17.1247C143.935 17.5968 143.504 18.2232 143.22 19.0037C142.943 19.778 142.805 20.6278 142.805 21.5531C142.805 22.4848 142.943 23.3377 143.22 24.112C143.504 24.8863 143.935 25.5063 144.514 25.9721C145.099 26.438 145.836 26.6709 146.724 26.6709Z" fill="#FF5A01"/>
<mask id="path-2-inside-1_2001_4811" fill="white">
<path d="M25.1532 2.3023C22.0805 1.80803 18.9315 2.14401 16.0323 3.27547C13.1331 4.40692 10.589 6.29273 8.66338 8.73764C6.73775 11.1826 5.50061 14.0977 5.08003 17.1814C4.65944 20.265 5.0707 23.405 6.27122 26.2763C7.47174 29.1476 9.41789 31.6458 11.9082 33.5124C14.3985 35.3789 17.3425 36.546 20.4353 36.8926C23.5281 37.2393 26.6573 36.753 29.4991 35.4841C32.3408 34.2152 34.7918 32.2098 36.5982 29.6755L22.3801 19.541L25.1532 2.3023Z"/>
</mask>
<path d="M25.1532 2.3023C22.0805 1.80803 18.9315 2.14401 16.0323 3.27547C13.1331 4.40692 10.589 6.29273 8.66338 8.73764C6.73775 11.1826 5.50061 14.0977 5.08003 17.1814C4.65944 20.265 5.0707 23.405 6.27122 26.2763C7.47174 29.1476 9.41789 31.6458 11.9082 33.5124C14.3985 35.3789 17.3425 36.546 20.4353 36.8926C23.5281 37.2393 26.6573 36.753 29.4991 35.4841C32.3408 34.2152 34.7918 32.2098 36.5982 29.6755L22.3801 19.541L25.1532 2.3023Z" stroke="#292D32" stroke-width="18.8989" mask="url(#path-2-inside-1_2001_4811)"/>
<ellipse cx="22.4785" cy="19.4991" rx="14.4686" ry="14.3281" fill="white"/>
<path d="M15.6012 23.7571C15.8656 23.9026 16.1154 24.0779 16.2673 24.178C16.4376 24.2902 16.5837 24.3787 16.7624 24.4592L16.9762 24.5549L17.1423 24.72L17.3581 24.9358L19.7311 27.2961L16.3884 27.136L5.72723 26.6262L5.72527 24.052L14.9157 23.5989L15.2809 23.5813L15.6012 23.7571Z" fill="#FF5A01" stroke="white" stroke-width="2.57713"/>
<path d="M13.1434 20.7413L13.4852 21.0812L13.6239 21.2198L13.7157 21.3927C13.8517 21.6498 14.033 21.9808 14.1835 22.2247L12.9969 22.9933L12.9462 24.0734L0.923706 23.4933L0.922729 20.9191L12.1718 20.3683L12.7401 20.3409L13.1434 20.7413Z" fill="#FF5A01" stroke="white" stroke-width="2.57713"/>
<path d="M14.2538 22.3572C14.3971 22.4929 14.6019 22.7316 14.7431 22.8923C14.9171 23.0905 15.0975 23.2937 15.2724 23.4685L14.244 24.5476L14.1952 25.574L3.42274 25.0593L3.42177 22.4861L13.3056 22.0056L13.8544 21.9792L14.2538 22.3572Z" fill="#FF5A01" stroke="white" stroke-width="2.57713"/>
<path d="M20.3259 16.6239C20.208 16.2732 20.0454 15.9593 19.838 15.6822C19.6353 15.4007 19.3902 15.1604 19.1027 14.9613C18.8199 14.7621 18.4947 14.6127 18.127 14.5131C17.7594 14.4092 17.3587 14.3573 16.9251 14.3573C16.1473 14.3573 15.4545 14.537 14.8464 14.8963C14.2384 15.2557 13.76 15.7839 13.4112 16.481C13.0671 17.1738 12.895 18.018 12.895 19.0139C12.895 20.0184 13.0671 20.8692 13.4112 21.5662C13.7552 22.2633 14.2337 22.7937 14.8464 23.1574C15.4592 23.5168 16.1709 23.6965 16.9816 23.6965C17.7169 23.6965 18.3533 23.5666 18.8906 23.3068C19.4327 23.047 19.8498 22.679 20.142 22.2027C20.4343 21.7221 20.5804 21.1593 20.5804 20.5141L21.1743 20.5986H17.2432V18.7151H23.1186V20.3128C23.1186 21.4515 22.8547 22.4365 22.3267 23.2678C21.7988 24.0991 21.073 24.7399 20.1491 25.1902C19.2253 25.6362 18.1647 25.8592 16.9675 25.8592C15.6336 25.8592 14.4623 25.5842 13.4536 25.0343C12.4496 24.4801 11.6648 23.6943 11.0992 22.6768C10.5383 21.655 10.2578 20.4427 10.2578 19.0399C10.2578 17.9661 10.4228 17.0071 10.7527 16.1628C11.0874 15.3185 11.554 14.6019 12.1527 14.0131C12.7513 13.4199 13.4536 12.9696 14.2596 12.6622C15.0656 12.3504 15.9423 12.1946 16.8897 12.1946C17.691 12.1946 18.4381 12.3028 19.131 12.5193C19.8239 12.7315 20.439 13.0345 20.9763 13.4285C21.5184 13.8226 21.9638 14.2902 22.3126 14.8314C22.6614 15.3726 22.89 15.9701 22.9984 16.6239H20.3259Z" fill="#FF5A01"/>
<path d="M29.8227 25.567C28.6358 25.567 27.6001 25.295 26.7155 24.7511C25.8308 24.2071 25.144 23.4461 24.655 22.468C24.166 21.49 23.9214 20.3471 23.9214 19.0394C23.9214 17.7262 24.166 16.5778 24.655 15.5943C25.144 14.6107 25.8308 13.847 26.7155 13.303C27.6001 12.759 28.6358 12.4871 29.8227 12.4871C31.0095 12.4871 32.0453 12.759 32.9299 13.303C33.8145 13.847 34.5013 14.6107 34.9904 15.5943C35.4794 16.5778 35.7239 17.7262 35.7239 19.0394C35.7239 20.3471 35.4794 21.49 34.9904 22.468C34.5013 23.4461 33.8145 24.2071 32.9299 24.7511C32.0453 25.295 31.0095 25.567 29.8227 25.567ZM29.8309 23.4983C30.6002 23.4983 31.2375 23.295 31.743 22.8884C32.2486 22.4818 32.6222 21.9406 32.864 21.2647C33.1112 20.5889 33.2348 19.8444 33.2348 19.0312C33.2348 18.2234 33.1112 17.4817 32.864 16.8058C32.6222 16.1245 32.2486 15.5778 31.743 15.1657C31.2375 14.7536 30.6002 14.5475 29.8309 14.5475C29.0562 14.5475 28.4133 14.7536 27.9023 15.1657C27.3968 15.5778 27.0204 16.1245 26.7732 16.8058C26.5314 17.4817 26.4105 18.2234 26.4105 19.0312C26.4105 19.8444 26.5314 20.5889 26.7732 21.2647C27.0204 21.9406 27.3968 22.4818 27.9023 22.8884C28.4133 23.295 29.0562 23.4983 29.8309 23.4983Z" fill="#FF5A01"/>
<rect x="21.9919" y="4.32812" width="15.1709" height="1.68566" rx="0.842829" fill="white"/>
<path d="M38.0709 3.6258L34.1377 0.675903V1.83541V5.41619V6.5757L38.0709 3.6258Z" fill="#292D32"/>
<rect x="20.8949" y="2.08826" width="14.83" height="3.17786" fill="#292D32"/>
<path d="M14.9797 24.886L5.78896 25.3391L16.4498 25.8492L16.2333 25.6338C15.6961 25.3916 15.3902 25.112 14.9797 24.886Z" fill="#FF5A01"/>
<path d="M12.2349 21.6554L0.986206 22.2062L13.008 22.7864C13.0332 22.8257 13.0602 22.8628 13.0864 22.9012C12.9128 22.6198 12.7157 22.2581 12.5767 21.9952L12.2349 21.6554Z" fill="#FF5A01"/>
<path d="M3.48427 23.7727L14.2571 24.2869C14.2911 24.319 14.3271 24.3479 14.3618 24.3795C13.9475 23.9653 13.5416 23.4576 13.3676 23.2927L3.48427 23.7727Z" fill="#FF5A01"/>
</svg>
