<svg width="64" height="60" viewBox="0 0 64 60" fill="none" xmlns="http://www.w3.org/2000/svg">
<mask id="path-1-inside-1_0_1469" fill="white">
<path d="M39.6984 3.35062C34.7077 2.54782 29.5932 3.09353 24.8842 4.93125C20.1753 6.76898 16.0431 9.83192 12.9155 13.803C9.78787 17.7741 7.77849 22.5089 7.09537 27.5174C6.41224 32.5258 7.08021 37.6259 9.03011 42.2895C10.98 46.9531 14.141 51.0108 18.1858 54.0424C22.2306 57.0741 27.0122 58.9696 32.0355 59.5326C37.0589 60.0957 42.1415 59.3059 46.7571 57.2449C51.3727 55.1839 55.3536 51.9268 58.2876 47.8106L35.1944 31.3499L39.6984 3.35062Z"/>
</mask>
<path d="M39.6984 3.35062C34.7077 2.54782 29.5932 3.09353 24.8842 4.93125C20.1753 6.76898 16.0431 9.83192 12.9155 13.803C9.78787 17.7741 7.77849 22.5089 7.09537 27.5174C6.41224 32.5258 7.08021 37.6259 9.03011 42.2895C10.98 46.9531 14.141 51.0108 18.1858 54.0424C22.2306 57.0741 27.0122 58.9696 32.0355 59.5326C37.0589 60.0957 42.1415 59.3059 46.7571 57.2449C51.3727 55.1839 55.3536 51.9268 58.2876 47.8106L35.1944 31.3499L39.6984 3.35062Z" stroke="#292D32" stroke-width="53.2851" mask="url(#path-1-inside-1_0_1469)"/>
<ellipse cx="35.3543" cy="31.2819" rx="23.5" ry="23.2719" fill="#F7F7FB"/>
<path d="M24.9262 36.8488C25.4266 37.1242 25.9182 37.4661 26.1137 37.5949C26.2992 37.7171 26.4353 37.8006 26.5688 37.8693L26.7036 37.9337L27.3051 38.2052L27.7729 38.6701L28.1245 39.0197L34.8149 45.6759L25.3881 45.2247L8.07269 44.3966L8.06781 37.1388L22.9955 36.4025L24.0239 36.3517L24.9262 36.8488Z" fill="#FF5A01" stroke="#F7F7FB" stroke-width="7.26614"/>
<path d="M21.2782 32.2079L21.8329 32.7597L22.2245 33.1493L22.4833 33.6376C22.7004 34.0481 22.9747 34.549 23.1913 34.9003L19.954 36.9999L19.7968 40.2499L0.271362 39.3075L0.268433 32.0497L18.5389 31.1552L20.1405 31.0771L21.2782 32.2079Z" fill="#FF5A01" stroke="#F7F7FB" stroke-width="7.26614"/>
<path d="M23.0553 34.8068C23.2478 34.9893 23.4322 35.1939 23.5426 35.3176C23.6682 35.4582 23.82 35.633 23.9469 35.7775C24.2285 36.0983 24.4944 36.3945 24.7399 36.6398L21.9772 39.5373L21.8278 42.6877L4.33069 41.8517L4.32776 34.5939L20.3795 33.8146L21.9293 33.7394L23.0553 34.8068Z" fill="#FF5A01" stroke="#F7F7FB" stroke-width="7.26614"/>
<path d="M31.8579 26.6119C31.6665 26.0423 31.4024 25.5324 31.0655 25.0823C30.7363 24.6252 30.3382 24.2349 29.8712 23.9115C29.4119 23.588 28.8836 23.3454 28.2865 23.1836C27.6893 23.0148 27.0386 22.9304 26.3343 22.9304C25.0711 22.9304 23.9457 23.2223 22.9581 23.806C21.9705 24.3897 21.1935 25.2476 20.6269 26.3798C20.0681 27.505 19.7886 28.8763 19.7886 30.4938C19.7886 32.1253 20.0681 33.5071 20.6269 34.6393C21.1858 35.7716 21.9629 36.633 22.9581 37.2237C23.9533 37.8074 25.1094 38.0993 26.4261 38.0993C27.6204 38.0993 28.654 37.8883 29.5267 37.4664C30.4071 37.0444 31.0846 36.4467 31.5593 35.6731C32.034 34.8925 32.2713 33.9783 32.2713 32.9305L33.2359 33.0676H26.851V30.0085H36.3939V32.6035C36.3939 34.453 35.9652 36.0529 35.1077 37.4031C34.2503 38.7533 33.0713 39.7941 31.5708 40.5254C30.0703 41.2498 28.3477 41.6119 26.4032 41.6119C24.2366 41.6119 22.3342 41.1654 20.6958 40.2723C19.0652 39.3721 17.7905 38.0958 16.8718 36.4432C15.9608 34.7835 15.5052 32.8144 15.5052 30.536C15.5052 28.7919 15.7732 27.2343 16.3091 25.8629C16.8527 24.4916 17.6106 23.3278 18.5829 22.3714C19.5551 21.4079 20.6958 20.6766 22.005 20.1773C23.3141 19.6709 24.7381 19.4178 26.2769 19.4178C27.5783 19.4178 28.7918 19.5936 29.9172 19.9452C31.0425 20.2898 32.0416 20.7821 32.9144 21.422C33.7948 22.0619 34.5182 22.8214 35.0848 23.7005C35.6513 24.5795 36.0226 25.55 36.1987 26.6119H31.8579Z" fill="#FF5A01"/>
<path d="M47.2828 41.1372C45.3552 41.1372 43.6729 40.6954 42.2361 39.8119C40.7992 38.9284 39.6837 37.6924 38.8894 36.1038C38.0951 34.5153 37.698 32.659 37.698 30.535C37.698 28.402 38.0951 26.5368 38.8894 24.9394C39.6837 23.3419 40.7992 22.1014 42.2361 21.2179C43.6729 20.3343 45.3552 19.8926 47.2828 19.8926C49.2105 19.8926 50.8928 20.3343 52.3296 21.2179C53.7664 22.1014 54.882 23.3419 55.6763 24.9394C56.4706 26.5368 56.8677 28.402 56.8677 30.535C56.8677 32.659 56.4706 34.5153 55.6763 36.1038C54.882 37.6924 53.7664 38.9284 52.3296 39.8119C50.8928 40.6954 49.2105 41.1372 47.2828 41.1372ZM47.2962 37.7771C48.5457 37.7771 49.5809 37.4469 50.4019 36.7865C51.223 36.1261 51.8298 35.2471 52.2225 34.1494C52.6241 33.0517 52.8249 31.8424 52.8249 30.5216C52.8249 29.2097 52.6241 28.0049 52.2225 26.9072C51.8298 25.8006 51.223 24.9126 50.4019 24.2432C49.5809 23.5739 48.5457 23.2392 47.2962 23.2392C46.0379 23.2392 44.9937 23.5739 44.1638 24.2432C43.3427 24.9126 42.7314 25.8006 42.3298 26.9072C41.9371 28.0049 41.7408 29.2097 41.7408 30.5216C41.7408 31.8424 41.9371 33.0517 42.3298 34.1494C42.7314 35.2471 43.3427 36.1261 44.1638 36.7865C44.9937 37.4469 46.0379 37.7771 47.2962 37.7771Z" fill="#FF5A01"/>
<rect x="34.5638" y="6.64101" width="24.6408" height="2.73787" rx="1.36893" fill="#F7F7FB"/>
<path d="M60.6794 5.50034L54.2911 0.709076V2.59236V8.40831V10.2916L60.6794 5.50034Z" fill="#292D32"/>
<rect x="32.7819" y="3.00295" width="24.0871" height="5.16152" fill="#292D32"/>
<path d="M23.1745 40.0314L8.24683 40.7674L25.5623 41.5958L25.2107 41.246C24.3381 40.8527 23.8413 40.3984 23.1745 40.0314Z" fill="#FF5A01"/>
<path d="M18.7164 34.7841L0.446167 35.6787L19.9721 36.6212C20.013 36.6849 20.057 36.7453 20.0994 36.8076C19.8175 36.3505 19.4973 35.763 19.2715 35.3361L18.7164 34.7841Z" fill="#FF5A01"/>
<path d="M4.50354 38.2231L22.0009 39.0583C22.0562 39.1105 22.1145 39.1575 22.171 39.2087C21.4981 38.536 20.8388 37.7114 20.5561 37.4436L4.50354 38.2231Z" fill="#FF5A01"/>
</svg>
